<?xml version="1.0" encoding="UTF-8"?>
<svg width="512px" height="628px" viewBox="0 0 512 628" version="1.1" xmlns="http://www.w3.org/2000/svg" xmlns:xlink="http://www.w3.org/1999/xlink">
    <!-- Generator: sketchtool 64 (101010) - https://sketch.com -->
    <title>19334FFE-53A7-4B47-871F-84F9E05F04AC</title>
    <desc>Created with sketchtool.</desc>
    <g id="Page-1" stroke="none" stroke-width="1" fill="none" fill-rule="evenodd">
        <g id="HOME" transform="translate(0.000000, -1436.000000)" fill="#C84F10" fill-rule="nonzero">
            <g id="Group-4" transform="translate(0.000000, 1400.000000)">
                <g id="hero-image-1-copy">
                    <g id="Monarchy-vertical-white" transform="translate(-208.000000, 36.000000)">
                        <path d="M685.64543,0.749917473 C526.396769,36.1108582 407.171859,204.372535 376.184849,251.732419 C372.881191,247.291549 368.132804,244.177244 362.779896,242.940567 L358.848504,242.940567 C353.031459,244.260385 347.961093,247.845684 344.733717,252.921255 C315.05717,207.358448 195.040522,36.4149789 34.426795,0.749917473 C6.55213661,-6.49368415 -9.25533371,39.8432483 5.84230202,91.9861211 C31.5601553,152.810257 31.5601553,145.539008 36.3924908,173.766936 C41.2248262,201.994865 52.4729744,237.355805 49.2514174,252.478897 C46.0298604,267.601989 47.6406389,268.763177 56.7592833,280.706826 C65.8779276,292.650474 54.0291502,297.544052 66.9426795,316.648361 C79.8562088,335.752669 101.779177,329.670255 121.081218,323.698431 C131.837942,320.380751 183.737771,316.040119 235.255382,315.40423 C228.293542,319.966041 215.844136,326.767285 203.094414,327.23729 C183.792374,327.95612 186.713616,341.060957 170.332818,346.037477 C154.509672,350.610316 140.151658,359.315235 128.698289,371.279493 C117.968866,382.863726 97.9842922,385.103161 79.3920862,408.188685 C60.7998802,431.274209 69.3724979,442.941384 56.5135713,450.157338 C43.6546447,457.373293 35.0820269,497.931932 44.3644792,519.63509 C50.0704573,536.223491 45.7841484,557.981943 67.9528287,565.944375 C90.121509,573.906807 74.3959427,594.891134 102.980436,604.291228 C131.564929,613.691322 133.011899,613.691322 143.004186,623.119063 C152.996473,632.546804 200.227775,627.597931 218.792679,614.4378 C237.357584,601.277668 245.220367,599.231766 249.506676,584.025732 C253.792985,568.819698 265.232242,562.847874 274.350887,554.719557 C283.005408,546.978304 300.369055,504.954355 345.689263,476.643485 C346.590207,497.323691 350.330489,510.843238 357.619945,511.866189 C359.687877,512.236821 361.804017,512.236821 363.871949,511.866189 C371.024898,510.870885 374.792481,497.738401 375.748028,477.555847 C420.003485,505.922012 437.066816,547.088893 445.639434,554.719557 C454.758078,562.875521 466.170034,568.819698 470.483644,584.025732 C474.797255,599.231766 482.632737,601.388258 501.197641,614.4378 C519.762546,627.487341 566.939245,632.519156 576.958833,623.119063 C586.978421,613.718969 588.398091,613.718969 616.982584,604.291228 C645.567076,594.863487 629.84151,573.87916 652.01019,565.944375 C674.178871,558.00959 669.837959,536.361727 675.543937,519.773327 C684.82639,498.070169 676.253772,457.539177 663.394845,450.295575 C650.535919,443.051974 659.108536,431.46774 640.51633,408.326921 C621.924124,385.186103 601.93955,383.001963 591.210128,371.41773 C579.819617,359.452052 565.529983,350.720042 549.766708,346.092772 C533.38591,341.03331 536.116043,328.011415 517.005112,327.292584 C504.25539,326.82258 491.805984,319.993688 484.844144,315.459525 C536.361755,316.012472 588.261584,320.353103 599.018308,323.753725 C618.320349,329.72555 640.29792,335.697374 653.156846,316.703655 C666.015773,297.709936 654.221598,292.816358 663.340243,280.76212 C672.458887,268.707883 674.069665,267.740226 670.848108,252.534192 C667.626551,237.328158 678.902001,202.050159 683.707035,173.822231 C688.512069,145.594302 688.539371,152.837904 714.257224,92.0414157 C729.16375,39.8432483 713.438184,-6.49368415 685.64543,0.749917473 Z M71.365495,80.9271873 C73.6315055,42.2209191 113.354941,47.9715647 147.345098,68.9282442 C196.869711,99.5338434 327.9707,240.341718 341.375653,258.837784 C337.228384,266.707496 334.23042,275.144854 332.475419,283.886269 C315.05717,263.261358 246.694639,203.708999 186.194891,166.744513 C157.337385,149.160809 114.77461,130.802979 100.031892,124.77586 C82.2321606,117.768659 70.7399608,100.145634 71.365495,80.816598 L71.365495,80.9271873 Z M337.526165,340.812131 L336.843632,341.309783 C300.259849,358.644662 262.201795,392.595588 218.792679,463.566296 C180.02479,526.878691 95.9366924,483.472376 159.657998,422.095294 C241.835002,341.75214 329.554177,326.739638 329.554177,326.739638 C330.874244,326.400786 332.233218,326.242709 333.594774,326.269633 C334.56299,331.173452 335.830381,336.011793 337.389659,340.756836 L337.526165,340.812131 Z M319.125069,281.315067 C319.125069,281.315067 233.071275,220.269753 140.929285,229.476315 C117.313634,230.941624 106.666115,223.587433 105.437555,208.713167 C103.47186,184.964107 135.469019,187.341777 165.009058,192.124766 C239.241376,204.593714 283.85175,243.023509 319.015863,281.28742 L319.125069,281.315067 Z M97.3017589,139.843657 C150.812367,145.373124 237.302981,209.957297 237.302981,209.957297 C237.302981,209.957297 175.438167,173.794584 103.826777,181.065833 C62.4652613,185.24058 64.4582584,136.470682 97.3017589,139.843657 Z M111.962573,269.094945 C93.7252846,275.675011 84.2790243,243.714692 106.502307,240.092892 C194.166879,225.743925 246.940351,254.828921 246.940351,254.828921 C246.940351,254.828921 179.369558,244.682349 111.962573,269.067298 L111.962573,269.094945 Z M146.143839,305.810605 C132.274763,307.054736 125.067212,298.760535 125.64054,285.600404 C126.186567,272.854983 137.762331,265.473145 203.449332,261.436634 C282.022561,256.59835 320.653943,287.812191 329.772587,294.834614 C328.829884,302.953526 329.564361,311.182244 331.929393,318.998384 C299.358905,311.505956 248.14161,296.548748 146.143839,305.782958 L146.143839,305.810605 Z M209.15531,337.687982 C232.388742,324.306672 243.827999,316.703655 270.255687,317.422486 C288.227717,318.127739 306.132421,320.058207 323.848199,323.200779 C323.848199,323.200779 265.259544,337.024446 238.804555,355.769339 C238.804555,355.769339 220.949484,356.128754 201.292527,356.847585 C181.635569,357.566415 186.031083,351.124587 209.15531,337.660335 L209.15531,337.687982 Z M151.986324,376.39425 C168.066807,363.01294 193.074826,359.031724 231.32399,360.10997 C231.32399,360.10997 189.88057,386.900237 174.155004,402.438039 C146.253044,400.2539 135.90584,389.830855 151.986324,376.366603 L151.986324,376.39425 Z M103.389956,432.490692 C104.809625,414.409335 127.961153,401.719209 144.123541,403.543933 C151.991452,404.203549 159.774592,405.657649 167.356973,407.884564 C167.356973,407.884564 143.768623,425.606505 133.776336,446.231417 C133.749035,446.20377 101.942985,450.65499 103.389956,432.463044 L103.389956,432.490692 Z M130.909697,451.318527 C130.909697,451.318527 125.449431,464.699836 130.199862,475.924654 C130.199862,475.924654 103.744873,494.365426 94.1075033,502.327859 C84.4701336,510.290291 70.1642365,454.885033 130.909697,451.263232 L130.909697,451.318527 Z M131.974449,541.061774 C125.531335,550.102452 86.5996374,519.358617 97.3290603,509.212045 C108.058483,499.065473 132.82079,480.984116 132.82079,480.984116 C132.82079,480.984116 141.748325,498.706058 158.89356,499.065473 C158.729752,499.037826 141.611818,526.906339 131.974449,541.006479 L131.974449,541.061774 Z M187.013931,570.727364 C177.376561,581.233351 135.90584,562.764932 144.860677,541.061774 C150.882637,526.809335 157.927012,513.022537 165.937304,499.811951 C182.039723,502.332843 198.370615,496.991103 209.97435,485.40769 C209.97435,485.40769 202.766798,510.649706 196.951615,534.205235 C193.102127,549.660095 194.958618,559.861961 186.986629,570.672069 L187.013931,570.727364 Z M225.235793,580.127458 C193.784661,582.892191 198.808105,555.52133 206.643587,520.796278 C214.479069,486.071226 226.655462,446.977895 260.945933,412.252843 C260.945933,412.252843 263.676067,449.162034 263.676067,498.37429 C263.676067,547.586545 256.659625,577.19684 225.235793,580.09981 L225.235793,580.127458 Z M312.763859,493.646595 C304.314781,499.649241 297.246256,507.429793 292.042149,516.455646 C282.404779,532.380511 265.232242,552.397181 264.877325,544.683575 C268.453799,511.036769 266.296994,404.290411 266.296994,404.290411 C266.296994,404.290411 298.457961,362.681172 313.828611,363.759418 C317.760002,389.830855 312.763859,493.618948 312.763859,493.618948 L312.763859,493.646595 Z M317.760002,486.23711 C319.916807,462.349813 318.824754,359.225256 318.824754,359.225256 C322.100914,354.552856 335.505867,349.465747 339.928682,347.862201 C341.457557,351.732828 343.177541,355.658749 345.197839,359.667613 L345.470852,360.22056 L345.470852,462.294518 C345.470852,463.990221 345.470852,465.658277 345.470852,467.298686 C344.378799,468.045164 332.748433,475.537591 317.760002,486.181815 L317.760002,486.23711 Z M375.911836,468.29399 C375.911836,466.358676 375.911836,464.368068 375.911836,462.322166 L375.911836,360.192912 L375.911836,359.916439 C377.904833,355.96287 379.624817,352.092243 381.12639,348.276911 C386.450149,350.239872 397.916708,354.884624 400.919855,359.169961 C400.919855,359.169961 399.855103,462.294518 401.984606,486.181815 C389.780912,477.445258 379.67942,470.726955 375.939137,468.238695 L375.911836,468.29399 Z M383.80192,341.586256 C385.471705,336.620668 386.821409,331.550545 387.842517,326.40787 C388.707043,326.494954 389.56455,326.642762 390.408842,326.850227 C390.408842,326.850227 478.128017,341.86273 560.305022,422.205883 C623.917121,483.527671 539.938229,526.961633 501.17034,463.676885 C458.006936,393.065593 420.11269,359.004077 383.829222,341.558609 L383.80192,341.586256 Z M427.92087,516.455646 C422.716763,507.429793 415.648238,499.649241 407.199161,493.646595 C407.199161,493.646595 402.203017,389.803207 406.134409,363.704124 C421.505058,362.625878 453.666025,404.235116 453.666025,404.235116 C453.666025,404.235116 451.50922,510.981474 455.085694,544.62828 C454.730777,552.231297 437.585541,532.325216 427.948172,516.400352 L427.92087,516.455646 Z M494.727226,580.044516 C463.276093,577.279782 456.150446,547.475956 456.150446,498.2637 C456.150446,449.051445 458.880579,412.142254 458.880579,412.142254 C493.17105,446.867306 505.292841,485.960637 513.182925,520.685689 C521.07301,555.410741 526.20566,582.975133 494.754527,580.09981 L494.727226,580.044516 Z M532.949089,570.644422 C526.342167,564.451419 526.915494,552.673654 523.74854,540.038823 C517.714946,515.957994 512.036269,488.614781 512.036269,488.614781 C525.987249,496.217798 554.025716,499.673714 554.025716,499.673714 C562.036092,512.884251 569.08047,526.671056 575.102343,540.923537 C584.08448,562.709637 542.641061,581.178056 532.97639,570.672069 L532.949089,570.644422 Z M587.988571,540.978832 C578.351201,526.878691 561.178664,499.010178 561.178664,499.010178 C578.3239,498.650763 587.251435,480.928822 587.251435,480.928822 C587.251435,480.928822 611.822632,499.010178 622.743164,509.15675 C633.663696,519.303322 594.458986,550.185394 588.015872,541.006479 L587.988571,540.978832 Z M625.855516,502.272564 C616.218146,494.310132 589.763157,475.869359 589.763157,475.869359 C594.404383,464.644542 589.053323,451.263232 589.053323,451.263232 C649.826084,454.885033 635.547488,510.262643 625.882817,502.300211 L625.855516,502.272564 Z M616.573064,432.435397 C617.992733,450.516754 586.186683,446.259064 586.186683,446.259064 C576.167095,425.634153 552.606046,407.912211 552.606046,407.912211 C560.188428,405.685296 567.971567,404.231196 575.839479,403.57158 C591.947264,401.691561 615.180696,414.35404 616.600365,432.463044 L616.573064,432.435397 Z M567.976695,376.338956 C584.057179,389.720265 573.682673,400.226252 545.835316,402.382745 C530.10975,386.817295 488.666331,360.054676 488.666331,360.054676 C526.915494,359.004077 551.86891,362.985293 568.003997,376.366603 L567.976695,376.338956 Z M510.80771,337.632687 C534.041142,351.013997 538.327451,357.538768 518.670493,356.819937 C499.013535,356.101107 481.158465,355.741691 481.158465,355.741691 C454.730777,336.913857 396.11482,323.173131 396.11482,323.173131 C413.830598,320.03056 431.735302,318.100092 449.707332,317.394839 C476.162321,316.676008 487.601579,324.251378 510.916915,337.660335 L510.80771,337.632687 Z M574.447111,305.755311 C472.44934,296.521101 421.204743,311.478309 388.661557,318.943089 C391.035763,311.1289 391.779541,302.900146 390.845664,294.779319 C399.964308,287.756896 438.595691,256.543056 517.16892,261.381339 C582.855921,265.41785 594.431685,272.799688 594.977711,285.545109 C595.551039,298.732888 588.343488,307.027088 574.474412,305.782958 L574.447111,305.755311 Z M608.655678,269.067298 C541.221392,244.682349 473.759804,254.773626 473.759804,254.773626 C473.759804,254.773626 526.505975,225.68863 614.197848,240.037597 C636.311925,243.687045 626.892966,275.675011 608.655678,269.067298 Z M401.711593,281.28742 C436.875707,243.051156 481.486081,204.566067 555.691097,192.263003 C585.176534,187.369425 617.228296,185.019401 615.2626,208.851404 C614.03404,223.72567 603.413822,230.969271 579.77087,229.614552 C487.546976,220.269753 401.711593,281.28742 401.711593,281.28742 Z M616.90068,181.065833 C545.28929,173.822231 483.424475,209.957297 483.424475,209.957297 C483.424475,209.957297 569.91509,145.345476 623.425698,139.843657 C656.159993,136.470682 658.125688,185.24058 616.791474,181.038185 L616.90068,181.065833 Z M620.80477,124.692918 C606.03475,130.637095 563.471976,149.077867 534.641771,166.661571 C474.142023,203.515468 405.779491,263.178416 388.361243,283.803327 C386.606242,275.061912 383.608278,266.624554 379.461009,258.754842 C392.865962,240.31407 523.966951,99.4509013 573.491564,68.8453021 C607.454419,47.8609753 647.205156,42.2485664 649.471167,80.8442453 C650.021008,100.151281 638.489921,117.711436 620.695564,124.66527 L620.80477,124.692918 Z" id="Shape"></path>
                        <path d="M437.846599,42.1009329 C436.117611,39.9785461 433.015955,39.6092587 430.83649,41.2662998 C428.657024,42.9233409 428.185355,46.0094179 429.770461,48.2411971 C430.23882,48.8499251 430.840765,49.3430518 431.529905,49.6825737 C394.754637,172.516685 376.727544,214.720192 369.63208,224.089139 C368.750432,225.034889 367.432317,225.441085 366.170879,225.155758 C361.95975,222.964866 360.661799,208.868203 360.402209,201.171252 C362.357449,201.077343 363.880522,199.441315 363.833528,197.485456 C363.786535,195.529598 362.186645,193.968522 360.229149,193.968522 C358.271653,193.968522 356.671763,195.529598 356.624769,197.485456 C356.577776,199.441315 358.100849,201.077343 360.056089,201.171252 L360.056089,201.171252 C359.652282,208.89703 358.383175,222.964866 354.287419,225.12693 C353.02598,225.412258 351.707866,225.006062 350.826217,224.060312 C343.759597,214.691364 325.732504,172.545513 288.986079,49.8267113 C289.41853,49.6625558 289.826196,49.4394323 290.197499,49.1636781 C292.203009,47.6383569 292.794839,44.8786217 291.59098,42.6658006 C290.387121,40.4529795 287.747791,39.4491914 285.376599,40.302352 C283.005408,41.1555127 281.611863,43.61034 282.095456,46.0823148 C282.579048,48.5542897 284.795079,50.3037495 287.313165,50.2014693 C303.263536,106.242191 344.653741,221.955902 342.980827,228.009684 C342.795205,228.861121 342.185324,229.557745 341.365599,229.854646 C339.173505,231.32485 334.154762,225.357551 331.241584,221.465834 C333.419499,221.41061 335.148324,219.615708 335.120694,217.438462 C335.093065,215.261216 333.319248,213.510715 331.140632,213.510715 C328.962016,213.510715 327.1882,215.261216 327.16057,217.438462 C327.132941,219.615708 328.861765,221.41061 331.03968,221.465834 L344.365307,243 C348.660501,238.835658 354.337014,236.393941 360.315679,236.139048 C366.314831,236.395539 372.03258,238.752817 376.467954,242.798207 L389.44746,221.667627 C389.974951,221.934347 390.558065,222.072638 391.149218,222.071212 C393.069312,222.078529 394.69907,220.665899 394.963466,218.765125 C395.227863,216.86435 394.045451,215.060978 392.196173,214.544551 C390.346896,214.028125 388.400438,214.957733 387.640724,216.720186 C386.881011,218.482639 387.542077,220.535001 389.18787,221.523489 C386.303536,225.386378 381.371323,231.20954 379.179229,229.739336 C378.359504,229.442435 377.749623,228.74581 377.564001,227.894373 C375.862243,221.811764 417.281291,106.069225 433.231663,50.0285041 C435.267784,50.3084767 437.2719,49.3337588 438.307899,47.5596365 C439.343898,45.7855141 439.207325,43.562111 437.961972,41.9279677 L437.846599,42.1009329 Z" id="Path"></path>
                    </g>
                </g>
            </g>
        </g>
    </g>
</svg>