<?xml version="1.0" encoding="UTF-8"?>
<svg width="255px" height="28px" viewBox="0 0 255 28" version="1.1" xmlns="http://www.w3.org/2000/svg" xmlns:xlink="http://www.w3.org/1999/xlink">
    <!-- Generator: sketchtool 64 (101010) - https://sketch.com -->
    <title>C1A8D2D1-4EB9-4FF7-9493-6DF98BC0172C</title>
    <desc>Created with sketchtool.</desc>
    <g id="Page-1" stroke="none" stroke-width="1" fill="none" fill-rule="evenodd">
        <g id="HOME" transform="translate(-55.000000, -33.000000)" fill="#FFFFFF" fill-rule="nonzero">
            <g id="Monarchy-logo" transform="translate(55.000000, 33.000000)">
                <g id="Monarchy-vertical-white" transform="translate(54.000000, 5.000000)">
                    <polygon id="Path" points="0 0 1.40886846 0 9.5 11.8291745 17.5911315 0 19 0 19 20 17.5080083 20 17.5080083 2.62808415 9.53099511 14.1427273 9.41546789 14.1427273 1.43986356 2.62808415 1.43986356 20 0 20"></polygon>
                    <path d="M28,10.5553378 L28,10.5 C28,4.96621622 32.0058378,0 38.028494,0 C44.0511502,0 48,4.90094595 48,10.4404054 L48,10.5 C48,16.0337838 43.9941622,21 37.971506,21 C31.9488498,21 28,16.0933784 28,10.5553378 Z M46.4654945,10.5553378 L46.4654945,10.5 C46.4654945,5.4827027 42.8863715,1.365 37.971506,1.365 C33.0566405,1.365 29.5345055,5.42452703 29.5345055,10.4460811 L29.5345055,10.5 C29.5345055,15.5172973 33.1136285,19.635 38.028494,19.635 C42.9433595,19.635 46.4668844,15.5726351 46.4668844,10.5553378 L46.4654945,10.5553378 Z" id="Shape"></path>
                    <polygon id="Path" points="58 0 59.4292921 0 73.5392635 17.3998742 73.5392635 0 75 0 75 20 73.8565663 20 59.4607365 2.22827986 59.4607365 20 58 20"></polygon>
                    <polygon id="Path" points="91.7122944 0 90.2877056 0 81 20 82.5388904 20 90.9707276 1.6170449 99.3760803 20 101 20"></polygon>
                    <path d="M110,0 L118.769251,0 C121.334793,0 123.39248,0.771650241 124.644605,1.97106312 C125.661637,2.96138525 126.2296,4.29614984 126.225084,5.68532886 L126.225084,5.74264346 C126.225084,9.08506326 123.630355,11.0002097 120.110396,11.4573286 L127,20 L125.032793,20 L118.381063,11.7145453 L111.551292,11.7145453 L111.551292,20 L110,20 L110,0 Z M118.585372,10.371147 C122.074685,10.371147 124.670873,8.68525896 124.670873,5.79995806 L124.670873,5.74264346 C124.670873,3.05724471 122.464332,1.37135668 118.675852,1.37135668 L111.551292,1.37135668 L111.551292,10.371147 L118.585372,10.371147 Z" id="Shape"></path>
                    <path d="M133,10.5553378 L133,10.5 C133,4.75763514 137.255901,0 143.06503,0 C146.659684,0 148.816476,1.33378378 150.88604,3.24790541 L149.822417,4.35040541 C148.068001,2.63918919 146.054713,1.36358108 143.035485,1.36358108 C138.204158,1.36358108 134.551821,5.33655405 134.551821,10.4446622 L134.551821,10.5 C134.551821,15.6336486 138.261841,19.635 143.063624,19.635 C145.967485,19.635 147.952634,18.4998649 149.99406,16.4736486 L151,17.4597973 C148.872753,19.5810811 146.571049,21 143.00594,21 C137.254494,21 133,16.3842568 133,10.5553378 Z" id="Path"></path>
                    <polygon id="Path" points="158 0 159.507401 0 159.507401 9.25700706 172.492599 9.25700706 172.492599 0 174 0 174 20 172.492599 20 172.492599 10.6339554 159.507401 10.6339554 159.507401 20 158 20"></polygon>
                    <polygon id="Path" points="191.283377 12.0863913 183 0 184.795272 0 192.027692 10.7429929 199.28848 7.94623874e-15 201 7.94623874e-15 192.716623 12.057035 192.716623 20 191.280675 20"></polygon>
                </g>
                <g id="Monarchy-vertical-white">
                    <path d="M30.4731302,0.0334358109 C23.395412,1.61003826 18.0965271,9.11215126 16.7193266,11.2237384 C16.5724974,11.0257379 16.361458,10.8868835 16.1235509,10.831745 L15.9488224,10.831745 C15.6902871,10.8905904 15.4649375,11.0504445 15.3214985,11.2767438 C14.0025409,9.2452811 8.66846764,1.62359778 1.53007978,0.0334358109 C0.291206071,-0.289527319 -0.411348165,1.77645056 0.259657867,4.10129202 C1.40267357,6.81319616 1.40267357,6.48900035 1.61744403,7.74757041 C1.8322145,9.00614046 2.33213219,10.5827429 2.18895188,11.2570209 C2.04577157,11.9312989 2.11736173,11.9830716 2.52263481,12.515591 C2.92790789,13.0481103 2.40129557,13.2662953 2.9752302,14.1180798 C3.54916484,14.9698642 4.52351898,14.6986738 5.38138745,14.4324141 C5.85946409,14.2844921 8.16612316,14.0909607 10.4557947,14.062609 C10.1463797,14.2660018 9.59307269,14.569242 9.02641841,14.5901976 C8.16854994,14.6222474 8.29838294,15.2065395 7.57034746,15.4284225 C6.86709652,15.6323071 6.22896256,16.0204245 5.71992395,16.5538628 C5.24306071,17.0703572 4.35485743,17.1702046 3.52853716,18.1994955 C2.7022169,19.2287864 3.08322213,19.7489789 2.51171428,20.0707094 C1.94020643,20.3924398 1.5592012,22.2007868 1.97175463,23.1684435 C2.22535366,23.9080537 2.03485104,24.8781758 3.02012572,25.2331887 C4.0054004,25.5882016 3.30648634,26.5238085 4.57690825,26.942921 C5.84733016,27.3620334 5.91163996,27.3620334 6.3557416,27.7823786 C6.79984324,28.2027237 8.89901221,27.9820733 9.72411908,27.3953159 C10.549226,26.8085585 10.898683,26.7173399 11.0891856,26.0393638 C11.2796882,25.3613878 11.7880997,25.0951281 12.1933727,24.7327191 C12.5780182,24.3875677 13.3497358,22.5138885 15.3639673,21.2516203 C15.4040092,22.1736678 15.570244,22.7764501 15.8942198,22.8220594 C15.9861279,22.8385844 16.0801785,22.8385844 16.1720866,22.8220594 C16.4899955,22.7776828 16.6574436,22.192158 16.6999124,21.2922989 C18.6668215,22.5570324 19.4251918,24.3924984 19.8061971,24.7327191 C20.2114701,25.0963608 20.7186682,25.3613878 20.9103842,26.0393638 C21.1021002,26.7173399 21.4503438,26.8134892 22.2754507,27.3953159 C23.1005576,27.9771426 25.1972998,28.201491 25.6426148,27.7823786 C26.0879298,27.3632661 26.1510262,27.3632661 27.4214482,26.942921 C28.6918701,26.5225758 27.992956,25.5869689 28.9782307,25.2331887 C29.9635054,24.8794085 29.770576,23.9142171 30.024175,23.1746069 C30.4367284,22.2069502 30.0557232,20.3998359 29.4842153,20.0768728 C28.9127075,19.7539096 29.2937127,19.2374152 28.4673925,18.2056589 C27.6410722,17.1739027 26.7528689,17.0765207 26.2760057,16.5600262 C25.7697607,16.0265246 25.1346659,15.6371993 24.4340759,15.4308879 C23.7060404,15.2053068 23.8273797,14.6247128 22.978005,14.592663 C22.4113507,14.5717074 21.8580437,14.2672345 21.5486286,14.0650744 C23.8383002,14.089728 26.1449593,14.2832594 26.6230359,14.4348795 C27.4809044,14.7011392 28.4576853,14.9673988 29.0291932,14.1205451 C29.600701,13.2736914 29.0765155,13.0555064 29.4817886,12.5180563 C29.8870616,11.9806062 29.9586518,11.9374623 29.8154715,11.2594863 C29.6722912,10.5815102 30.1734223,9.00860583 30.3869793,7.75003577 C30.6005364,6.49146572 30.6017498,6.81442885 31.7447655,4.10375739 C32.4072778,1.77645056 31.7083637,-0.289527319 30.4731302,0.0334358109 Z M3.17179978,3.60821854 C3.27251135,1.88246136 5.03799739,2.13885957 6.548671,3.07323382 C8.74976493,4.43781467 14.5764755,10.7158728 15.1722512,11.5405382 C14.9879282,11.891417 14.8546853,12.267605 14.7766853,12.6573496 C14.0025409,11.7377675 10.9642062,9.08256685 8.27532848,7.43446875 C6.99277265,6.65048191 5.1010938,5.83197994 4.44586187,5.56325489 C3.65476269,5.25083191 3.14399826,4.46509196 3.17179978,3.60328781 L3.17179978,3.60821854 Z M15.0011629,15.1954453 L14.9708281,15.2176336 C13.3448822,15.9905263 11.6534131,17.5042619 9.72411908,20.668561 C8.00110178,23.4914066 4.263853,21.5560932 7.09591101,18.8195354 C10.7482223,15.2373566 14.6468523,14.5680093 14.6468523,14.5680093 C14.705522,14.5529013 14.7659208,14.5458533 14.8264344,14.5470537 C14.8694662,14.7656953 14.9257947,14.9814175 14.9950959,15.19298 L15.0011629,15.1954453 Z M14.1833364,12.54271 C14.1833364,12.54271 10.3587233,9.82094439 6.26352378,10.2314281 C5.21393929,10.2967603 4.74071623,9.96886643 4.68611357,9.3056826 C4.59874932,8.24680731 6.02084528,8.3528181 7.33373593,8.56607238 C10.63295,9.12201273 12.6156333,10.8354431 14.1784828,12.5414773 L14.1833364,12.54271 Z M4.32452262,6.23506751 C6.70277185,6.48160425 10.5467992,9.36115337 10.5467992,9.36115337 C10.5467992,9.36115337 7.79725185,7.74880309 4.61452342,8.0729989 C2.77623384,8.25913414 2.86481149,6.0846801 4.32452262,6.23506751 Z M4.97611437,11.9978638 C4.16556821,12.2912425 3.74573441,10.8662602 4.73343588,10.7047786 C8.62963908,10.0650158 10.9751267,11.361799 10.9751267,11.361799 C10.9751267,11.361799 7.97198036,10.9094041 4.97611437,11.9966311 L4.97611437,11.9978638 Z M6.49528174,13.6348678 C5.87887836,13.6903385 5.55854275,13.3205334 5.584024,12.733776 C5.60829185,12.1655088 6.12277025,11.8363822 9.04219252,11.6564104 C12.534336,11.4406908 14.2512864,12.8323907 14.6565594,13.1454923 C14.6146615,13.5074821 14.6473049,13.8743675 14.7524174,14.2228579 C13.3048402,13.8888006 11.028516,13.2219187 6.49528174,13.6336351 L6.49528174,13.6348678 Z M9.29579154,15.0561521 C10.3283885,14.4595332 10.8368,14.1205451 12.0113639,14.1525949 C12.8101208,14.1840393 13.6058854,14.2701112 14.3932533,14.4102258 C14.3932533,14.4102258 11.7893131,15.0265677 10.6135358,15.8623272 C10.6135358,15.8623272 9.81997709,15.8783521 8.94633451,15.9104019 C8.07269194,15.9424516 8.26804812,15.6552363 9.29579154,15.0549194 L9.29579154,15.0561521 Z M6.75494772,16.7819092 C7.46963588,16.1852903 8.58110338,16.0077839 10.2810662,16.0558585 C10.2810662,16.0558585 8.43913646,17.2503291 7.7402224,17.9430973 C6.50013531,17.8457153 6.04025956,17.3809935 6.75494772,16.7806766 L6.75494772,16.7819092 Z M4.59510914,19.2830245 C4.65820555,18.4768493 5.68716236,17.9110475 6.40549069,17.9924046 C6.75517566,18.0218143 7.10109296,18.0866468 7.43808768,18.185936 C7.43808768,18.185936 6.38971659,18.9760862 5.94561495,19.8956683 C5.94440156,19.8944356 4.53079934,20.0928977 4.59510914,19.2817918 L4.59510914,19.2830245 Z M5.81820874,20.1224821 C5.81820874,20.1224821 5.57553025,20.719101 5.78666054,21.2195706 C5.78666054,21.2195706 4.61088324,22.0417706 4.1825557,22.3967835 C3.75422816,22.7517964 3.11841051,20.2814983 5.81820874,20.1200167 L5.81820874,20.1224821 Z M5.86553105,24.1237734 C5.57917043,24.5268609 3.84887277,23.1561167 4.32573601,22.7037217 C4.80259925,22.2513268 5.90314621,21.4451517 5.90314621,21.4451517 C5.90314621,21.4451517 6.29992555,22.2353019 7.06193602,22.2513268 C7.05465566,22.2500941 6.29385859,23.4926393 5.86553105,24.121308 L5.86553105,24.1237734 Z M8.31173025,25.446443 C7.88340271,25.9148628 6.04025956,25.0914301 6.43825229,24.1237734 C6.70589499,23.4883143 7.01897831,22.8736163 7.37499127,22.2846093 C8.09065437,22.3970057 8.81647179,22.158839 9.33219332,21.6423811 C9.33219332,21.6423811 9.0118577,22.7678213 8.75340511,23.8180678 C8.58231677,24.507138 8.66482746,24.9619983 8.31051686,25.4439776 L8.31173025,25.446443 Z M10.0104797,25.8655554 C8.61265158,25.9888238 8.8359158,24.7684669 9.18415943,23.2202162 C9.53240307,21.6719655 10.0735761,19.9289507 11.597597,18.3807 C11.597597,18.3807 11.7189363,20.0263327 11.7189363,22.2205097 C11.7189363,24.4146867 11.4070944,25.734891 10.0104797,25.8643227 L10.0104797,25.8655554 Z M13.9006159,22.0097208 C13.5251014,22.2773547 13.2109447,22.6242583 12.9796511,23.0266849 C12.5513235,23.7367107 11.7880997,24.6291737 11.7723256,24.2852549 C11.93128,22.7850789 11.835422,18.0256871 11.835422,18.0256871 C11.835422,18.0256871 13.2647983,16.1704981 13.9479382,16.2185728 C14.1226668,17.3809935 13.9006159,22.0084881 13.9006159,22.0084881 L13.9006159,22.0097208 Z M14.1226668,21.6793616 C14.2185248,20.6143229 14.1699891,16.0164127 14.1699891,16.0164127 C14.3155962,15.8080891 14.9113719,15.5812753 15.1079414,15.5097797 C15.1758914,15.6823554 15.2523351,15.8573965 15.3421262,16.0361356 L15.3542601,16.0607893 L15.3542601,20.6118575 C15.3542601,20.6874621 15.3542601,20.761834 15.3542601,20.8349733 C15.3057244,20.8682557 14.7888192,21.202313 14.1226668,21.6768962 L14.1226668,21.6793616 Z M16.7071927,20.8793499 C16.7071927,20.793062 16.7071927,20.7043088 16.7071927,20.6130902 L16.7071927,16.0595566 L16.7071927,16.0472298 C16.7957704,15.870956 16.8722141,15.6983803 16.9389507,15.5282699 C17.1755622,15.6157905 17.685187,15.8228813 17.8186602,16.0139473 C17.8186602,16.0139473 17.7713379,20.6118575 17.8659825,21.6768962 C17.3235961,21.2873682 16.8746409,20.987826 16.7084061,20.8768845 L16.7071927,20.8793499 Z M17.0578631,15.2299605 C17.1320758,15.0085648 17.1920626,14.7825084 17.2374452,14.5532171 C17.2758686,14.5570998 17.31398,14.56369 17.3515041,14.5729401 C17.3515041,14.5729401 21.2501341,15.2422873 24.9024454,18.8244661 C27.7296498,21.5585586 23.9972546,23.4951047 22.2742373,20.6734917 C20.3558638,17.5252175 18.6716751,16.0065512 17.0590765,15.2287278 L17.0578631,15.2299605 Z M19.0187053,23.0266849 C18.7874117,22.6242583 18.473255,22.2773547 18.0977405,22.0097208 C18.0977405,22.0097208 17.8756896,17.3797608 18.0504182,16.2161074 C18.7335581,16.1680328 20.1629344,18.0232217 20.1629344,18.0232217 C20.1629344,18.0232217 20.0670764,22.7826135 20.2260309,24.2827896 C20.2102567,24.6217776 19.4482463,23.7342453 19.0199187,23.0242195 L19.0187053,23.0266849 Z M21.9878767,25.8618574 C20.5900486,25.738589 20.2733532,24.409756 20.2733532,22.215579 C20.2733532,20.021402 20.3946924,18.3757693 20.3946924,18.3757693 C21.9187133,19.92402 22.4574596,21.6670347 22.80813,23.2152855 C23.1588004,24.7635362 23.3869182,25.9925219 21.9890901,25.8643227 L21.9878767,25.8618574 Z M23.6866262,25.4427449 C23.3929852,25.1666238 23.4184664,24.6415005 23.2777129,24.0781641 C23.0095532,23.0044966 22.7571675,21.7853724 22.7571675,21.7853724 C23.3772111,22.1243604 24.6233651,22.2784459 24.6233651,22.2784459 C24.9793819,22.8674507 25.2924653,23.482149 25.5601041,24.1176099 C25.9593102,25.0889647 24.1173805,25.9123974 23.6878395,25.4439776 L23.6866262,25.4427449 Z M26.1328254,24.1200753 C25.7044978,23.4914066 24.941274,22.2488615 24.941274,22.2488615 C25.7032844,22.2328366 26.1000638,21.4426863 26.1000638,21.4426863 C26.1000638,21.4426863 27.192117,22.2488615 27.677474,22.7012564 C28.162831,23.1536513 26.4203994,24.530559 26.1340388,24.121308 L26.1328254,24.1200753 Z M27.8158007,22.3943181 C27.3874732,22.0393052 26.2116959,21.2171052 26.2116959,21.2171052 C26.4179726,20.7166356 26.1801477,20.1200167 26.1801477,20.1200167 C28.8811593,20.2814983 28.246555,22.7505637 27.8170141,22.3955508 L27.8158007,22.3943181 Z M27.4032473,19.2805591 C27.4663437,20.0867342 26.0527415,19.896901 26.0527415,19.896901 C25.6074264,18.9773189 24.5602687,18.1871687 24.5602687,18.1871687 C24.8972634,18.0878795 25.2431807,18.023047 25.5928657,17.9936373 C26.3087673,17.9098148 27.3413643,18.474384 27.4044607,19.2817918 L27.4032473,19.2805591 Z M25.2434087,16.7794439 C25.9580968,17.3760628 25.4970077,17.8444826 24.2593474,17.9406319 C23.5604333,17.246631 21.7185036,16.0533932 21.7185036,16.0533932 C23.4184664,16.0065512 24.5275071,16.1840577 25.2446221,16.7806766 L25.2434087,16.7794439 Z M22.7025649,15.0536867 C23.7351619,15.6503056 23.9256645,15.941219 23.0520219,15.9091692 C22.1783793,15.8771194 21.3848207,15.8610945 21.3848207,15.8610945 C20.2102567,15.0216369 17.6051031,14.4089931 17.6051031,14.4089931 C18.392471,14.2688785 19.1882356,14.1828067 19.9869925,14.1513622 C21.1627698,14.1193125 21.6711813,14.4570678 22.7074184,15.0549194 L22.7025649,15.0536867 Z M25.5309827,13.6324024 C20.9977485,13.220686 18.7202108,13.8875679 17.273847,14.2203925 C17.3793673,13.8719892 17.4124241,13.505102 17.3709184,13.143027 C17.7761915,12.8299253 19.4931418,11.4382254 22.9852853,11.6539451 C25.9047076,11.8339169 26.419186,12.1630434 26.4434538,12.7313106 C26.4689351,13.3193007 26.1485995,13.6891058 25.5321961,13.6336351 L25.5309827,13.6324024 Z M27.0513635,11.9966311 C24.0542841,10.9094041 21.0559913,11.3593336 21.0559913,11.3593336 C21.0559913,11.3593336 23.4002655,10.0625504 27.2976821,10.7023132 C28.28053,10.8650275 27.8619096,12.2912425 27.0513635,11.9966311 Z M17.8538486,12.5414773 C19.4166981,10.8366758 21.3993814,9.12078005 24.6973821,8.5722358 C26.0078459,8.35405079 27.4323687,8.24927267 27.3450044,9.31184602 C27.2904018,9.97502985 26.8183921,10.297993 25.7675942,10.2375915 C21.6687545,9.82094439 17.8538486,12.5414773 17.8538486,12.5414773 Z M27.417808,8.0729989 C24.2350795,7.75003577 21.4855322,9.36115337 21.4855322,9.36115337 C21.4855322,9.36115337 25.3295596,6.48037156 27.7078088,6.23506751 C29.1626663,6.0846801 29.2500306,8.25913414 27.4129544,8.07176622 L27.417808,8.0729989 Z M27.5913231,5.55955684 C26.9348778,5.82458383 25.0431989,6.64678386 23.7618565,7.4307707 C21.0729788,9.07393807 18.0346441,11.7340695 17.2604997,12.6536515 C17.1824996,12.2639069 17.0492568,11.887719 16.8649337,11.5368401 C17.4607094,10.7146401 23.28742,4.43411662 25.488514,3.06953576 C26.9979742,2.13392884 28.7646736,1.88369404 28.8653852,3.60452049 C28.8898226,4.46534373 28.3773298,5.24828061 27.5864695,5.55832416 L27.5913231,5.55955684 Z" id="Shape"></path>
                    <path d="M19.4485745,1.89314481 C19.3714859,1.79904884 19.2331954,1.78267649 19.1360218,1.85614137 C19.0388482,1.92960625 19.0178184,2.06642739 19.0884919,2.16537327 C19.1093741,2.19236121 19.1362124,2.21422397 19.1669385,2.22927667 C17.5272768,7.67512399 16.7235211,9.54621539 16.4071628,9.96158746 C16.3678537,10.0035173 16.3090842,10.0215259 16.2528417,10.008876 C16.0650844,9.91174281 16.007214,9.28676761 15.9956399,8.94552348 C16.0828162,8.94136006 16.1507239,8.86882678 16.1486286,8.78211383 C16.1465334,8.69540088 16.0752007,8.62619065 15.9879238,8.62619065 C15.9006469,8.62619065 15.8293143,8.69540088 15.827219,8.78211383 C15.8251238,8.86882678 15.8930315,8.94136006 15.9802078,8.94552348 L15.9802078,8.94552348 C15.9622036,9.28804567 15.9056192,9.91174281 15.7230059,10.0075979 C15.6667635,10.0202479 15.607994,10.0022392 15.5686848,9.96030939 C15.2536126,9.54493732 14.4498569,7.67640205 12.8114812,2.23566701 C12.8307625,2.22838917 12.8489387,2.218497 12.8654936,2.20627144 C12.9549112,2.13864637 12.9812986,2.01629357 12.9276233,1.9181882 C12.8739481,1.82008283 12.7562709,1.77557991 12.650549,1.81340477 C12.5448271,1.85122963 12.4826945,1.96006433 12.504256,2.06965928 C12.5258174,2.17925422 12.6246213,2.25681648 12.7368927,2.25228189 C13.4480558,4.73684588 15.2934789,9.86701043 15.2188904,10.1354047 C15.2106142,10.1731531 15.1834221,10.204038 15.1468738,10.217201 C15.0491371,10.2823825 14.8253716,10.0178224 14.6954846,9.84528328 C14.7925891,9.8428349 14.8696705,9.763258 14.8684386,9.66672985 C14.8672067,9.57020169 14.7881193,9.49259327 14.6909836,9.49259327 C14.5938479,9.49259327 14.5147605,9.57020169 14.5135286,9.66672985 C14.5122967,9.763258 14.5893781,9.8428349 14.6864826,9.84528328 L15.2806188,10.8 C15.4721243,10.615374 15.7252172,10.5071205 15.9917819,10.4958198 C16.25926,10.5071914 16.5141915,10.6117012 16.711947,10.7910535 L17.2906511,9.85422975 C17.3141698,9.86605481 17.3401685,9.8721859 17.3665256,9.8721227 C17.4521349,9.87244709 17.5247993,9.80981819 17.5365877,9.7255474 C17.5483761,9.64127662 17.495657,9.56132414 17.4132052,9.53842839 C17.3307533,9.51553264 17.2439686,9.5567468 17.210096,9.63488511 C17.1762234,9.71302342 17.2056977,9.80401484 17.279077,9.84783941 C17.1504761,10.0191005 16.9305685,10.2772702 16.8328318,10.2120888 C16.7962836,10.1989257 16.7690915,10.1680409 16.7608153,10.1302924 C16.6849408,9.86062009 18.5316499,4.72917748 19.242813,2.24461348 C19.3335955,2.25702606 19.422951,2.21381197 19.469142,2.1351563 C19.515333,2.05650063 19.5092438,1.9579261 19.4537185,1.8854764 L19.4485745,1.89314481 Z" id="Path"></path>
                </g>
            </g>
        </g>
    </g>
</svg>